<svg version="1.1" class="clone" xmlns="http://www.w3.org/2000/svg" xmlns:xlink="http://www.w3.org/1999/xlink" x="0px" y="0px" viewBox="0 0 23 48.9" enable-background="new 0 0 23 48.9" xml:space="preserve"  id="clone-1" width="35"  height="50" >
    <path fill="#F40604" class="head" d="M11.5,9.6c2.7,0,4.8-2.2,4.8-4.8c0-2.7-2.2-4.8-4.8-4.8C8.9,0,6.7,2.2,6.7,4.8C6.7,7.5,8.9,9.6,11.5,9.6
        L11.5,9.6z M11.5,9.6"></path>
    <path fill="#F40604" class="head" d="M23,25c0-0.1,0-0.2,0-0.3L20.6,12c-0.2-1.2-1.2-2.1-2.4-2.1H4.8c-1.2,0-2.2,0.9-2.4,2L0,24.7
        c0,0.1,0,0.2,0,0.3c0,0.1,0,0.2,0,0.3c0,1.3,1.1,2.4,2.4,2.4c1.2,0,2.2-0.8,2.4-2l1.5-9.5l0,30.2c0,1.3,1.1,2.4,2.4,2.4
        c1.3,0,2.4-1.1,2.4-2.4V31.5h0.6v14.9c0,1.3,1.1,2.4,2.4,2.4c1.3,0,2.4-1.1,2.4-2.4l0-30.2l1.5,9.5c0.2,1.2,1.2,2,2.4,2
        c1.3,0,2.4-1.1,2.4-2.4C23,25.2,23,25.1,23,25L23,25z M23,25"></path>
  </svg>